<?xml version="1.0" encoding="UTF-8"?>
<svg width="800px" height="800px" viewBox="0 0 24 24" version="1.1" xmlns="http://www.w3.org/2000/svg" xmlns:xlink="http://www.w3.org/1999/xlink">
    <title>PC Case</title>
    <g stroke="none" stroke-width="1" fill="none" fill-rule="evenodd">
        <path d="M2,2 C2,1.44771525 2.44771525,1 3,1 L21,1 C21.5522847,1 22,1.44771525 22,2 L22,22 C22,22.5522847 21.5522847,23 21,23 L3,23 C2.44771525,23 2,22.5522847 2,22 L2,2 Z" fill="#FF00FF" />
        <path d="M4,3 L20,3 L20,21 L4,21 L4,3 Z" fill="#000000" />
        
        <!-- Front panel -->
        <path d="M6,4 L10,4 L10,6 L6,6 L6,4 Z" fill="#00FFFF" />
        <path d="M6,8 L10,8 L10,10 L6,10 L6,8 Z" fill="#00FFFF" />
        
        <!-- Side window -->
        <path d="M14,6 L18,6 C18.5522847,6 19,6.44771525 19,7 L19,16 C19,16.5522847 18.5522847,17 18,17 L14,17 C13.4477153,17 13,16.5522847 13,16 L13,7 C13,6.44771525 13.4477153,6 14,6 Z" fill="#00FFFF" opacity="0.5" />
        
        <!-- Front IO ports -->
        <path d="M6,12 L7,12 L7,13 L6,13 L6,12 Z" fill="#FF00FF" />
        <path d="M8,12 L9,12 L9,13 L8,13 L8,12 Z" fill="#FF00FF" />
        <path d="M6,14 L9,14 L9,15 L6,15 L6,14 Z" fill="#FF00FF" />
        
        <!-- Front fans-->
        <path d="M6,17 C6,16.4477153 6.44771525,16 7,16 L9,16 C9.55228475,16 10,16.4477153 10,17 L10,19 C10,19.5522847 9.55228475,20 9,20 L7,20 C6.44771525,20 6,19.5522847 6,19 L6,17 Z" fill="#00FFFF" opacity="0.3" />
    </g>
</svg>