<?xml version="1.0" encoding="UTF-8"?>
<svg width="800px" height="800px" viewBox="0 0 24 24" fill="none" xmlns="http://www.w3.org/2000/svg">
<path d="M9 2C9 1.44772 8.55229 1 8 1C7.44772 1 7 1.44772 7 2L7 3.95L6.055 3.95C4.36968 3.95 3 5.31968 3 7.005L3 7.95H2C1.44772 7.95 1 8.39772 1 8.95C1 9.50229 1.44772 9.95 2 9.95H3L3 11.95H2C1.44772 11.95 1 12.3977 1 12.95C1 13.5023 1.44772 13.95 2 13.95H3L3 15.95H2C1.44772 15.95 1 16.3977 1 16.95C1 17.5023 1.44772 17.95 2 17.95H3L3 18.995C3 20.6803 4.36968 22.05 6.055 22.05H7V23C7 23.5523 7.44772 24 8 24C8.55229 24 9 23.5523 9 23V22.05H11V23C11 23.5523 11.4477 24 12 24C12.5523 24 13 23.5523 13 23V22.05H15V23C15 23.5523 15.4477 24 16 24C16.5523 24 17 23.5523 17 23V22.05H17.945C19.6303 22.05 21 20.6803 21 18.995V17.95H22C22.5523 17.95 23 17.5023 23 16.95C23 16.3977 22.5523 15.95 22 15.95H21V13.95H22C22.5523 13.95 23 13.5023 23 12.95C23 12.3977 22.5523 11.95 22 11.95H21V9.95H22C22.5523 9.95 23 9.50229 23 8.95C23 8.39772 22.5523 7.95 22 7.95H21V7.005C21 5.31968 19.6303 3.95 17.945 3.95L17 3.95L17 2C17 1.44772 16.5523 1 16 1C15.4477 1 15 1.44772 15 2V3.95L13 3.95V2C13 1.44772 12.5523 1 12 1C11.4477 1 11 1.44772 11 2V3.95L9 3.95L9 2Z" fill="#FF00FF"/>
<path fill-rule="evenodd" clip-rule="evenodd" d="M6.055 5.95C5.47471 5.95 5 6.42471 5 7.005V18.995C5 19.5753 5.47471 20.05 6.055 20.05H17.945C18.5253 20.05 19 19.5753 19 18.995V7.005C19 6.42471 18.5253 5.95 17.945 5.95H6.055ZM7 9V7H17V9H7ZM7 11V17H17V11H7Z" fill="#00FFFF"/>
</svg>