<?xml version="1.0" encoding="UTF-8"?>
<svg width="800px" height="800px" viewBox="0 0 24 24" version="1.1" xmlns="http://www.w3.org/2000/svg" xmlns:xlink="http://www.w3.org/1999/xlink">
    <title>GPU</title>
    <g stroke="none" stroke-width="1" fill="none" fill-rule="evenodd">
        <path d="M2,6 C2,4.8954305 2.8954305,4 4,4 L20,4 C21.1045695,4 22,4.8954305 22,6 L22,18 C22,19.1045695 21.1045695,20 20,20 L4,20 C2.8954305,20 2,19.1045695 2,18 L2,6 Z" fill="#FF00FF" />
        <path d="M4,6 L20,6 L20,18 L4,18 L4,6 Z" fill="#000000" />
        <path d="M8,9 C8,8.44771525 8.44771525,8 9,8 L15,8 C15.5522847,8 16,8.44771525 16,9 L16,15 C16,15.5522847 15.5522847,16 15,16 L9,16 C8.44771525,16 8,15.5522847 8,15 L8,9 Z" fill="#00FFFF" />
        <path d="M22,11 L24,11 L24,13 L22,13 L22,11 Z" fill="#FF00FF" />
        <path d="M0,11 L2,11 L2,13 L0,13 L0,11 Z" fill="#FF00FF" />
    </g>
</svg>