<?xml version="1.0" encoding="UTF-8"?>
<svg width="800px" height="800px" viewBox="0 0 24 24" version="1.1" xmlns="http://www.w3.org/2000/svg" xmlns:xlink="http://www.w3.org/1999/xlink">
    <title>Storage</title>
    <g stroke="none" stroke-width="1" fill="none" fill-rule="evenodd">
        <path d="M2,4 C2,2.8954305 2.8954305,2 4,2 L20,2 C21.1045695,2 22,2.8954305 22,4 L22,20 C22,21.1045695 21.1045695,22 20,22 L4,22 C2.8954305,22 2,21.1045695 2,20 L2,4 Z" fill="#FF00FF" />
        <path d="M4,4 L20,4 L20,20 L4,20 L4,4 Z" fill="#000000" />
        
        <!-- SSD representation -->
        <path d="M6,8 L18,8 C18.5522847,8 19,8.44771525 19,9 L19,15 C19,15.5522847 18.5522847,16 18,16 L6,16 C5.44771525,16 5,15.5522847 5,15 L5,9 C5,8.44771525 5.44771525,8 6,8 Z" fill="#00FFFF" />
        
        <!-- Connector pins -->
        <path d="M6,12 L7,12 L7,14 L6,14 L6,12 Z" fill="#FF00FF" />
        <path d="M8,12 L9,12 L9,14 L8,14 L8,12 Z" fill="#FF00FF" />
        <path d="M10,12 L11,12 L11,14 L10,14 L10,12 Z" fill="#FF00FF" />
        <path d="M12,12 L13,12 L13,14 L12,14 L12,12 Z" fill="#FF00FF" />
        <path d="M14,12 L15,12 L15,14 L14,14 L14,12 Z" fill="#FF00FF" />
        <path d="M16,12 L17,12 L17,14 L16,14 L16,12 Z" fill="#FF00FF" />
    </g>
</svg>