<?xml version="1.0" encoding="UTF-8"?>
<svg width="512px" height="512px" viewBox="0 0 512 512" version="1.1" xmlns="http://www.w3.org/2000/svg">
    <title>Cooling</title>
    <g id="Cooling" stroke="none" stroke-width="1" fill="none" fill-rule="evenodd">
        <!-- AIO Liquid Cooler -->
        <g id="AIO-Cooler" transform="translate(48, 48)">
            <rect id="Radiator" stroke="#FF00FF" stroke-width="8" fill="#1E1E2E" x="208" y="0" width="208" height="192" rx="8"></rect>
            <circle id="Fan-1" stroke="#00FFFF" stroke-width="4" fill="#1E1E2E" cx="272" cy="48" r="32"></circle>
            <circle id="Fan-2" stroke="#00FFFF" stroke-width="4" fill="#1E1E2E" cx="352" cy="48" r="32"></circle>
            <circle id="Fan-3" stroke="#00FFFF" stroke-width="4" fill="#1E1E2E" cx="272" cy="144" r="32"></circle>
            <circle id="Fan-4" stroke="#00FFFF" stroke-width="4" fill="#1E1E2E" cx="352" cy="144" r="32"></circle>
            <line x1="240" y1="48" x2="304" y2="48" id="Fan-Line-1" stroke="#FF00FF" stroke-width="3"></line>
            <line x1="272" y1="16" x2="272" y2="80" id="Fan-Line-2" stroke="#FF00FF" stroke-width="3"></line>
            <line x1="320" y1="48" x2="384" y2="48" id="Fan-Line-3" stroke="#FF00FF" stroke-width="3"></line>
            <line x1="352" y1="16" x2="352" y2="80" id="Fan-Line-4" stroke="#FF00FF" stroke-width="3"></line>
            <line x1="240" y1="144" x2="304" y2="144" id="Fan-Line-5" stroke="#FF00FF" stroke-width="3"></line>
            <line x1="272" y1="112" x2="272" y2="176" id="Fan-Line-6" stroke="#FF00FF" stroke-width="3"></line>
            <line x1="320" y1="144" x2="384" y2="144" id="Fan-Line-7" stroke="#FF00FF" stroke-width="3"></line>
            <line x1="352" y1="112" x2="352" y2="176" id="Fan-Line-8" stroke="#FF00FF" stroke-width="3"></line>
            <rect id="CPU-Block" stroke="#00FFFF" stroke-width="6" fill="#1E1E2E" x="48" y="64" width="80" height="80" rx="8"></rect>
            <circle id="CPU-Block-Inner" stroke="#FF00FF" stroke-width="4" fill="#1E1E2E" cx="88" cy="104" r="24"></circle>
            <text id="AIO" font-family="Arial-BoldMT, Arial" font-size="16" font-weight="bold" fill="#00FFFF">
                <tspan x="72" y="110">AIO</tspan>
            </text>
            <path id="Tube-1" d="M128,80 C168,80 168,48 208,48" stroke="#FF00FF" stroke-width="8" stroke-linecap="round"></path>
            <path id="Tube-2" d="M128,128 C168,128 168,144 208,144" stroke="#FF00FF" stroke-width="8" stroke-linecap="round"></path>
            <rect id="RGB-Strip" stroke="#00FFFF" stroke-width="3" fill="#1E1E2E" x="64" y="152" width="48" height="8" rx="4"></rect>
        </g>
        
        <!-- Air Cooler -->
        <g id="Air-Cooler" transform="translate(80, 304)">
            <rect id="Base-Plate" stroke="#00FFFF" stroke-width="6" fill="#1E1E2E" x="144" y="96" width="64" height="64" rx="4"></rect>
            <rect id="Fin-Stack" stroke="#FF00FF" stroke-width="8" fill="#1E1E2E" x="64" y="0" width="224" height="96" rx="8"></rect>
            <line x1="96" y1="0" x2="96" y2="96" id="Heat-Pipe-1" stroke="#00FFFF" stroke-width="4" stroke-linecap="round"></line>
            <line x1="128" y1="0" x2="128" y2="96" id="Heat-Pipe-2" stroke="#00FFFF" stroke-width="4" stroke-linecap="round"></line>
            <line x1="176" y1="0" x2="176" y2="96" id="Heat-Pipe-3" stroke="#00FFFF" stroke-width="4" stroke-linecap="round"></line>
            <line x1="224" y1="0" x2="224" y2="96" id="Heat-Pipe-4" stroke="#00FFFF" stroke-width="4" stroke-linecap="round"></line>
            <line x1="256" y1="0" x2="256" y2="96" id="Heat-Pipe-5" stroke="#00FFFF" stroke-width="4" stroke-linecap="round"></line>
            <path id="Heat-Pipe-Base-1" d="M96,96 C96,128 128,128 144,128" stroke="#00FFFF" stroke-width="4" stroke-linecap="round"></path>
            <path id="Heat-Pipe-Base-2" d="M128,96 C128,112 144,112 144,128" stroke="#00FFFF" stroke-width="4" stroke-linecap="round"></path>
            <path id="Heat-Pipe-Base-3" d="M176,96 C176,112 160,112 160,128" stroke="#00FFFF" stroke-width="4" stroke-linecap="round"></path>
            <path id="Heat-Pipe-Base-4" d="M224,96 C224,128 208,128 208,128" stroke="#00FFFF" stroke-width="4" stroke-linecap="round"></path>
            <path id="Heat-Pipe-Base-5" d="M256,96 C256,144 224,144 208,144" stroke="#00FFFF" stroke-width="4" stroke-linecap="round"></path>
            <circle id="Fan" stroke="#00FFFF" stroke-width="4" fill="#1E1E2E" cx="176" cy="48" r="40"></circle>
            <line x1="136" y1="48" x2="216" y2="48" id="Fan-Line-1" stroke="#FF00FF" stroke-width="3"></line>
            <line x1="176" y1="8" x2="176" y2="88" id="Fan-Line-2" stroke="#FF00FF" stroke-width="3"></line>
            <line x1="145" y1="17" x2="207" y2="79" id="Fan-Line-3" stroke="#FF00FF" stroke-width="3"></line>
            <line x1="145" y1="79" x2="207" y2="17" id="Fan-Line-4" stroke="#FF00FF" stroke-width="3"></line>
            <text id="AIR" font-family="Arial-BoldMT, Arial" font-size="16" font-weight="bold" fill="#00FFFF">
                <tspan x="162" y="128">AIR</tspan>
            </text>
        </g>
        
        <text id="Cooling" font-family="Arial-BoldMT, Arial" font-size="24" font-weight="bold" fill="#FF00FF">
            <tspan x="208" y="496">COOLING</tspan>
        </text>
    </g>
</svg>