<?xml version="1.0" encoding="UTF-8"?>
<svg width="512px" height="512px" viewBox="0 0 512 512" version="1.1" xmlns="http://www.w3.org/2000/svg">
    <title>GPU</title>
    <g id="GPU" stroke="none" stroke-width="1" fill="none" fill-rule="evenodd">
        <rect id="Card-Base" stroke="#FF00FF" stroke-width="12" fill="#1E1E2E" x="32" y="144" width="448" height="224" rx="12"></rect>
        <rect id="Chip" stroke="#00FFFF" stroke-width="8" fill="#1E1E2E" x="96" y="192" width="160" height="128" rx="8"></rect>
        <rect id="Fan-1" stroke="#FF00FF" stroke-width="6" x="288" y="176" width="64" height="64" rx="32"></rect>
        <rect id="Fan-2" stroke="#FF00FF" stroke-width="6" x="368" y="176" width="64" height="64" rx="32"></rect>
        <line x1="288" y1="208" x2="352" y2="208" id="Fan-Line-1" stroke="#FF00FF" stroke-width="4"></line>
        <line x1="320" y1="176" x2="320" y2="240" id="Fan-Line-2" stroke="#FF00FF" stroke-width="4"></line>
        <line x1="368" y1="208" x2="432" y2="208" id="Fan-Line-3" stroke="#FF00FF" stroke-width="4"></line>
        <line x1="400" y1="176" x2="400" y2="240" id="Fan-Line-4" stroke="#FF00FF" stroke-width="4"></line>
        <line x1="74" y1="368" x2="74" y2="408" id="Port-1" stroke="#00FFFF" stroke-width="8" stroke-linecap="round"></line>
        <line x1="106" y1="368" x2="106" y2="408" id="Port-2" stroke="#00FFFF" stroke-width="8" stroke-linecap="round"></line>
        <line x1="138" y1="368" x2="138" y2="408" id="Port-3" stroke="#00FFFF" stroke-width="8" stroke-linecap="round"></line>
        <line x1="170" y1="368" x2="170" y2="408" id="Port-4" stroke="#00FFFF" stroke-width="8" stroke-linecap="round"></line>
        <rect id="PCIe-Connector" stroke="#FF00FF" stroke-width="6" fill="#1E1E2E" x="32" y="368" width="448" height="24"></rect>
        <text id="GPU" font-family="Arial-BoldMT, Arial" font-size="40" font-weight="bold" fill="#00FFFF">
            <tspan x="136" y="264">GPU</tspan>
        </text>
        <line x1="288" y1="272" x2="432" y2="272" id="Power-Connector" stroke="#FF00FF" stroke-width="8" stroke-linecap="round"></line>
    </g>
</svg>