<?xml version="1.0" encoding="UTF-8"?>
<svg width="512px" height="512px" viewBox="0 0 512 512" version="1.1" xmlns="http://www.w3.org/2000/svg">
    <title>RAM</title>
    <g id="RAM" stroke="none" stroke-width="1" fill="none" fill-rule="evenodd">
        <rect id="RAM-Stick" stroke="#FF00FF" stroke-width="12" fill="#1E1E2E" x="64" y="144" width="384" height="96" rx="8"></rect>
        <rect id="Chip-1" stroke="#00FFFF" stroke-width="6" fill="#1E1E2E" x="96" y="160" width="64" height="64" rx="4"></rect>
        <rect id="Chip-2" stroke="#00FFFF" stroke-width="6" fill="#1E1E2E" x="176" y="160" width="64" height="64" rx="4"></rect>
        <rect id="Chip-3" stroke="#00FFFF" stroke-width="6" fill="#1E1E2E" x="256" y="160" width="64" height="64" rx="4"></rect>
        <rect id="Chip-4" stroke="#00FFFF" stroke-width="6" fill="#1E1E2E" x="336" y="160" width="64" height="64" rx="4"></rect>
        <rect id="Connector" stroke="#FF00FF" stroke-width="6" fill="#1E1E2E" x="64" y="240" width="384" height="24"></rect>
        <line x1="96" y1="240" x2="96" y2="264" id="Connector-Pin-1" stroke="#00FFFF" stroke-width="2"></line>
        <line x1="112" y1="240" x2="112" y2="264" id="Connector-Pin-2" stroke="#00FFFF" stroke-width="2"></line>
        <line x1="128" y1="240" x2="128" y2="264" id="Connector-Pin-3" stroke="#00FFFF" stroke-width="2"></line>
        <line x1="144" y1="240" x2="144" y2="264" id="Connector-Pin-4" stroke="#00FFFF" stroke-width="2"></line>
        <line x1="160" y1="240" x2="160" y2="264" id="Connector-Pin-5" stroke="#00FFFF" stroke-width="2"></line>
        <line x1="176" y1="240" x2="176" y2="264" id="Connector-Pin-6" stroke="#00FFFF" stroke-width="2"></line>
        <line x1="192" y1="240" x2="192" y2="264" id="Connector-Pin-7" stroke="#00FFFF" stroke-width="2"></line>
        <line x1="208" y1="240" x2="208" y2="264" id="Connector-Pin-8" stroke="#00FFFF" stroke-width="2"></line>
        <line x1="224" y1="240" x2="224" y2="264" id="Connector-Pin-9" stroke="#00FFFF" stroke-width="2"></line>
        <line x1="240" y1="240" x2="240" y2="264" id="Connector-Pin-10" stroke="#00FFFF" stroke-width="2"></line>
        <line x1="256" y1="240" x2="256" y2="264" id="Connector-Pin-11" stroke="#00FFFF" stroke-width="2"></line>
        <line x1="272" y1="240" x2="272" y2="264" id="Connector-Pin-12" stroke="#00FFFF" stroke-width="2"></line>
        <line x1="288" y1="240" x2="288" y2="264" id="Connector-Pin-13" stroke="#00FFFF" stroke-width="2"></line>
        <line x1="304" y1="240" x2="304" y2="264" id="Connector-Pin-14" stroke="#00FFFF" stroke-width="2"></line>
        <line x1="320" y1="240" x2="320" y2="264" id="Connector-Pin-15" stroke="#00FFFF" stroke-width="2"></line>
        <line x1="336" y1="240" x2="336" y2="264" id="Connector-Pin-16" stroke="#00FFFF" stroke-width="2"></line>
        <line x1="352" y1="240" x2="352" y2="264" id="Connector-Pin-17" stroke="#00FFFF" stroke-width="2"></line>
        <line x1="368" y1="240" x2="368" y2="264" id="Connector-Pin-18" stroke="#00FFFF" stroke-width="2"></line>
        <line x1="384" y1="240" x2="384" y2="264" id="Connector-Pin-19" stroke="#00FFFF" stroke-width="2"></line>
        <line x1="400" y1="240" x2="400" y2="264" id="Connector-Pin-20" stroke="#00FFFF" stroke-width="2"></line>
        <line x1="416" y1="240" x2="416" y2="264" id="Connector-Pin-21" stroke="#00FFFF" stroke-width="2"></line>
        <line x1="432" y1="240" x2="432" y2="264" id="Connector-Pin-22" stroke="#00FFFF" stroke-width="2"></line>
        <text id="RAM" font-family="Arial-BoldMT, Arial" font-size="24" font-weight="bold" fill="#00FFFF">
            <tspan x="128" y="200">RAM</tspan>
        </text>
        <text id="DDR4" font-family="Arial-BoldMT, Arial" font-size="24" font-weight="bold" fill="#00FFFF">
            <tspan x="368" y="200">DDR4</tspan>
        </text>
        <polygon id="Path" stroke="#FF00FF" stroke-width="4" fill="#1E1E2E" points="206 288 256 352 306 288"></polygon>
        <polygon id="Path" stroke="#FF00FF" stroke-width="4" fill="#1E1E2E" points="206 352 256 288 306 352"></polygon>
    </g>
</svg>