<?xml version="1.0" encoding="UTF-8" standalone="no"?>
<svg width="400" height="400" viewBox="0 0 400 400" xmlns="http://www.w3.org/2000/svg">
  <!-- CPU body -->
  <rect x="50" y="50" width="300" height="300" rx="10" ry="10" fill="#2b2b2b" stroke="#000" stroke-width="2"/>
  
  <!-- CPU pins area (underside) -->
  <rect x="75" y="75" width="250" height="250" rx="5" ry="5" fill="#1a1a1a" stroke="#333" stroke-width="1"/>
  
  <!-- CPU die -->
  <rect x="125" y="125" width="150" height="150" rx="2" ry="2" fill="#444" stroke="#555" stroke-width="1"/>
  
  <!-- AMD logo -->
  <g transform="translate(145, 145) scale(0.7)">
    <path d="M30,110 L110,30 L170,30 L90,110 Z" fill="#ED1C24"/>
    <path d="M90,110 L170,30 L170,90 L150,110 Z" fill="#ED1C24"/>
    <path d="M150,110 L170,90 L170,150 L90,150 Z" fill="#ED1C24"/>
  </g>
  
  <!-- Ryzen text -->
  <text x="200" y="300" font-family="Arial, sans-serif" font-size="18" text-anchor="middle" fill="#ffffff">RYZEN 9 9950X</text>
  
  <!-- CPU corner markings -->
  <circle cx="80" cy="80" r="15" fill="#2b2b2b" stroke="#444" stroke-width="1"/>
  
  <!-- Heat spreader details -->
  <line x1="70" y1="70" x2="330" y2="70" stroke="#444" stroke-width="1"/>
  <line x1="70" y1="330" x2="330" y2="330" stroke="#444" stroke-width="1"/>
  <line x1="70" y1="70" x2="70" y2="330" stroke="#444" stroke-width="1"/>
  <line x1="330" y1="70" x2="330" y2="330" stroke="#444" stroke-width="1"/>
  
  <!-- AMD branding at the top -->
  <text x="200" y="100" font-family="Arial, sans-serif" font-weight="bold" font-size="22" text-anchor="middle" fill="#ffffff">AMD</text>
  
  <!-- Zen 5 architecture label -->
  <text x="200" y="260" font-family="Arial, sans-serif" font-size="14" text-anchor="middle" fill="#aaaaaa">Zen 5 Architecture</text>
  
  <!-- 16 Core / 32 Thread -->
  <text x="200" y="280" font-family="Arial, sans-serif" font-size="12" text-anchor="middle" fill="#aaaaaa">16 Cores / 32 Threads</text>
</svg>